<mxfile host="app.diagrams.net" modified="2023-08-04T04:11:28.316Z" agent="Mozilla/5.0 (Windows NT 10.0; Win64; x64) AppleWebKit/537.36 (KHTML, like Gecko) Chrome/115.0.0.0 Safari/537.36" etag="ZNF4auXYlfeOyBR8idae" version="21.6.6" type="device">
  <diagram name="PÃ¡gina-1" id="Z_zJEJGkiSUrdJZ3INVm">
    <mxGraphModel dx="683" dy="361" grid="1" gridSize="5" guides="1" tooltips="1" connect="1" arrows="1" fold="1" page="1" pageScale="1" pageWidth="1169" pageHeight="827" math="0" shadow="0">
      <root>
        <mxCell id="0" />
        <mxCell id="1" parent="0" />
        <mxCell id="c_Amdf7lURbIj001u1mX-1" value="STORE" style="rounded=0;whiteSpace=wrap;html=1;" vertex="1" parent="1">
          <mxGeometry x="230" y="370" width="90" height="40" as="geometry" />
        </mxCell>
        <mxCell id="c_Amdf7lURbIj001u1mX-2" value="creates" style="shape=rhombus;perimeter=rhombusPerimeter;whiteSpace=wrap;html=1;align=center;fillColor=none;gradientColor=none;" vertex="1" parent="1">
          <mxGeometry x="370" y="358" width="120" height="65" as="geometry" />
        </mxCell>
        <mxCell id="c_Amdf7lURbIj001u1mX-3" value="" style="endArrow=none;html=1;rounded=0;entryX=0;entryY=0.5;entryDx=0;entryDy=0;" edge="1" parent="1" target="c_Amdf7lURbIj001u1mX-2">
          <mxGeometry relative="1" as="geometry">
            <mxPoint x="320" y="390" as="sourcePoint" />
            <mxPoint x="480" y="390" as="targetPoint" />
          </mxGeometry>
        </mxCell>
        <mxCell id="c_Amdf7lURbIj001u1mX-4" value="" style="endArrow=none;html=1;rounded=0;entryX=0;entryY=0.5;entryDx=0;entryDy=0;exitX=1;exitY=0.5;exitDx=0;exitDy=0;" edge="1" parent="1" source="c_Amdf7lURbIj001u1mX-2" target="c_Amdf7lURbIj001u1mX-5">
          <mxGeometry relative="1" as="geometry">
            <mxPoint x="520" y="390" as="sourcePoint" />
            <mxPoint x="550" y="390.5" as="targetPoint" />
          </mxGeometry>
        </mxCell>
        <mxCell id="c_Amdf7lURbIj001u1mX-5" value="USER" style="rounded=0;whiteSpace=wrap;html=1;gradientColor=none;fillColor=none;" vertex="1" parent="1">
          <mxGeometry x="540" y="370.5" width="90" height="40" as="geometry" />
        </mxCell>
        <mxCell id="c_Amdf7lURbIj001u1mX-8" value="" style="ellipse;whiteSpace=wrap;html=1;aspect=fixed;" vertex="1" parent="1">
          <mxGeometry x="190" y="394.75" width="10" height="10" as="geometry" />
        </mxCell>
        <mxCell id="c_Amdf7lURbIj001u1mX-9" value="" style="ellipse;whiteSpace=wrap;html=1;aspect=fixed;fillColor=#000000;" vertex="1" parent="1">
          <mxGeometry x="190" y="374.75" width="10" height="10" as="geometry" />
        </mxCell>
        <mxCell id="c_Amdf7lURbIj001u1mX-10" value="" style="endArrow=none;html=1;rounded=0;entryX=1;entryY=0.5;entryDx=0;entryDy=0;exitX=0;exitY=0.25;exitDx=0;exitDy=0;" edge="1" parent="1" source="c_Amdf7lURbIj001u1mX-1" target="c_Amdf7lURbIj001u1mX-9">
          <mxGeometry width="50" height="50" relative="1" as="geometry">
            <mxPoint x="230" y="394.75" as="sourcePoint" />
            <mxPoint x="260" y="374.75" as="targetPoint" />
            <Array as="points">
              <mxPoint x="220" y="379.75" />
            </Array>
          </mxGeometry>
        </mxCell>
        <mxCell id="c_Amdf7lURbIj001u1mX-11" value="" style="endArrow=none;html=1;rounded=0;entryX=1;entryY=0.5;entryDx=0;entryDy=0;exitX=0;exitY=0.75;exitDx=0;exitDy=0;" edge="1" parent="1" source="c_Amdf7lURbIj001u1mX-1" target="c_Amdf7lURbIj001u1mX-8">
          <mxGeometry width="50" height="50" relative="1" as="geometry">
            <mxPoint x="230" y="404.75" as="sourcePoint" />
            <mxPoint x="210" y="389.75" as="targetPoint" />
            <Array as="points">
              <mxPoint x="220" y="399.75" />
            </Array>
          </mxGeometry>
        </mxCell>
        <mxCell id="c_Amdf7lURbIj001u1mX-14" value="id" style="text;html=1;strokeColor=none;fillColor=none;align=center;verticalAlign=middle;whiteSpace=wrap;rounded=0;" vertex="1" parent="1">
          <mxGeometry x="160" y="374.75" width="30" height="10" as="geometry" />
        </mxCell>
        <mxCell id="c_Amdf7lURbIj001u1mX-15" value="name" style="text;html=1;strokeColor=none;fillColor=none;align=center;verticalAlign=middle;whiteSpace=wrap;rounded=0;" vertex="1" parent="1">
          <mxGeometry x="150" y="395.25" width="30" height="10" as="geometry" />
        </mxCell>
        <mxCell id="c_Amdf7lURbIj001u1mX-18" value="(1,n)" style="text;html=1;align=center;verticalAlign=middle;resizable=0;points=[];autosize=1;strokeColor=none;fillColor=none;" vertex="1" parent="1">
          <mxGeometry x="323" y="388" width="45" height="30" as="geometry" />
        </mxCell>
        <mxCell id="c_Amdf7lURbIj001u1mX-19" value="(1,1)" style="text;html=1;align=center;verticalAlign=middle;resizable=0;points=[];autosize=1;strokeColor=none;fillColor=none;" vertex="1" parent="1">
          <mxGeometry x="490" y="388" width="50" height="30" as="geometry" />
        </mxCell>
        <mxCell id="c_Amdf7lURbIj001u1mX-20" value="has" style="shape=rhombus;perimeter=rhombusPerimeter;whiteSpace=wrap;html=1;align=center;fillColor=none;gradientColor=none;" vertex="1" parent="1">
          <mxGeometry x="690" y="358" width="120" height="65" as="geometry" />
        </mxCell>
        <mxCell id="c_Amdf7lURbIj001u1mX-21" value="" style="endArrow=none;html=1;rounded=0;entryX=0;entryY=0.5;entryDx=0;entryDy=0;exitX=1;exitY=0.5;exitDx=0;exitDy=0;" edge="1" parent="1" source="c_Amdf7lURbIj001u1mX-20" target="c_Amdf7lURbIj001u1mX-22">
          <mxGeometry relative="1" as="geometry">
            <mxPoint x="840" y="390" as="sourcePoint" />
            <mxPoint x="870" y="390.5" as="targetPoint" />
          </mxGeometry>
        </mxCell>
        <mxCell id="c_Amdf7lURbIj001u1mX-22" value="ADDRESS" style="rounded=0;whiteSpace=wrap;html=1;gradientColor=none;fillColor=none;" vertex="1" parent="1">
          <mxGeometry x="860" y="370.5" width="90" height="40" as="geometry" />
        </mxCell>
        <mxCell id="c_Amdf7lURbIj001u1mX-26" value="(1,1)" style="text;html=1;align=center;verticalAlign=middle;resizable=0;points=[];autosize=1;strokeColor=none;fillColor=none;" vertex="1" parent="1">
          <mxGeometry x="813" y="388" width="45" height="30" as="geometry" />
        </mxCell>
        <mxCell id="c_Amdf7lURbIj001u1mX-30" value="" style="endArrow=none;html=1;rounded=0;entryX=0;entryY=0.5;entryDx=0;entryDy=0;exitX=1;exitY=0.5;exitDx=0;exitDy=0;" edge="1" parent="1" source="c_Amdf7lURbIj001u1mX-5" target="c_Amdf7lURbIj001u1mX-20">
          <mxGeometry relative="1" as="geometry">
            <mxPoint x="500" y="401" as="sourcePoint" />
            <mxPoint x="550" y="401" as="targetPoint" />
          </mxGeometry>
        </mxCell>
        <mxCell id="c_Amdf7lURbIj001u1mX-31" value="" style="ellipse;whiteSpace=wrap;html=1;aspect=fixed;fillColor=#000000;" vertex="1" parent="1">
          <mxGeometry x="540" y="300" width="10" height="10" as="geometry" />
        </mxCell>
        <mxCell id="c_Amdf7lURbIj001u1mX-32" value="" style="endArrow=none;html=1;rounded=0;entryX=0.5;entryY=1;entryDx=0;entryDy=0;exitX=0.276;exitY=-0.004;exitDx=0;exitDy=0;exitPerimeter=0;" edge="1" parent="1" target="c_Amdf7lURbIj001u1mX-31">
          <mxGeometry width="50" height="50" relative="1" as="geometry">
            <mxPoint x="544.84" y="370.00000000000006" as="sourcePoint" />
            <mxPoint x="640" y="334.66" as="targetPoint" />
            <Array as="points">
              <mxPoint x="545" y="349.66" />
            </Array>
          </mxGeometry>
        </mxCell>
        <mxCell id="c_Amdf7lURbIj001u1mX-33" value="password" style="text;html=1;strokeColor=none;fillColor=none;align=center;verticalAlign=middle;whiteSpace=wrap;rounded=0;" vertex="1" parent="1">
          <mxGeometry x="620" y="345" width="40" height="10" as="geometry" />
        </mxCell>
        <mxCell id="c_Amdf7lURbIj001u1mX-34" value="" style="ellipse;whiteSpace=wrap;html=1;aspect=fixed;fillColor=#000000;" vertex="1" parent="1">
          <mxGeometry x="560" y="314.5" width="10" height="10" as="geometry" />
        </mxCell>
        <mxCell id="c_Amdf7lURbIj001u1mX-35" value="" style="endArrow=none;html=1;rounded=0;entryX=0.5;entryY=1;entryDx=0;entryDy=0;exitX=0.217;exitY=-0.01;exitDx=0;exitDy=0;exitPerimeter=0;" edge="1" parent="1" target="c_Amdf7lURbIj001u1mX-34">
          <mxGeometry width="50" height="50" relative="1" as="geometry">
            <mxPoint x="564.5299999999999" y="370.1" as="sourcePoint" />
            <mxPoint x="650" y="329.5" as="targetPoint" />
            <Array as="points">
              <mxPoint x="565" y="345" />
            </Array>
          </mxGeometry>
        </mxCell>
        <mxCell id="c_Amdf7lURbIj001u1mX-36" value="" style="ellipse;whiteSpace=wrap;html=1;aspect=fixed;" vertex="1" parent="1">
          <mxGeometry x="600" y="345" width="10" height="10" as="geometry" />
        </mxCell>
        <mxCell id="c_Amdf7lURbIj001u1mX-37" value="" style="endArrow=none;html=1;rounded=0;entryX=0.5;entryY=1;entryDx=0;entryDy=0;" edge="1" parent="1" target="c_Amdf7lURbIj001u1mX-36">
          <mxGeometry width="50" height="50" relative="1" as="geometry">
            <mxPoint x="605" y="370.5" as="sourcePoint" />
            <mxPoint x="700" y="350.5" as="targetPoint" />
            <Array as="points">
              <mxPoint x="605" y="365.5" />
            </Array>
          </mxGeometry>
        </mxCell>
        <mxCell id="c_Amdf7lURbIj001u1mX-38" value="email" style="text;html=1;strokeColor=none;fillColor=none;align=center;verticalAlign=middle;whiteSpace=wrap;rounded=0;" vertex="1" parent="1">
          <mxGeometry x="570" y="314.5" width="40" height="10" as="geometry" />
        </mxCell>
        <mxCell id="c_Amdf7lURbIj001u1mX-39" value="id" style="text;html=1;strokeColor=none;fillColor=none;align=center;verticalAlign=middle;whiteSpace=wrap;rounded=0;" vertex="1" parent="1">
          <mxGeometry x="540" y="300" width="40" height="10" as="geometry" />
        </mxCell>
        <mxCell id="c_Amdf7lURbIj001u1mX-40" value="(0,n)" style="text;html=1;align=center;verticalAlign=middle;resizable=0;points=[];autosize=1;strokeColor=none;fillColor=none;" vertex="1" parent="1">
          <mxGeometry x="630" y="388" width="50" height="30" as="geometry" />
        </mxCell>
        <mxCell id="c_Amdf7lURbIj001u1mX-48" value="" style="ellipse;whiteSpace=wrap;html=1;aspect=fixed;fillColor=none;" vertex="1" parent="1">
          <mxGeometry x="580" y="330" width="10" height="10" as="geometry" />
        </mxCell>
        <mxCell id="c_Amdf7lURbIj001u1mX-49" value="" style="endArrow=none;html=1;rounded=0;entryX=0.5;entryY=1;entryDx=0;entryDy=0;exitX=0.5;exitY=0;exitDx=0;exitDy=0;" edge="1" parent="1" source="c_Amdf7lURbIj001u1mX-5" target="c_Amdf7lURbIj001u1mX-48">
          <mxGeometry width="50" height="50" relative="1" as="geometry">
            <mxPoint x="575" y="383.25" as="sourcePoint" />
            <mxPoint x="660" y="342.75" as="targetPoint" />
            <Array as="points" />
          </mxGeometry>
        </mxCell>
        <mxCell id="c_Amdf7lURbIj001u1mX-50" value="name" style="text;html=1;strokeColor=none;fillColor=none;align=center;verticalAlign=middle;whiteSpace=wrap;rounded=0;" vertex="1" parent="1">
          <mxGeometry x="590" y="330" width="40" height="10" as="geometry" />
        </mxCell>
        <mxCell id="c_Amdf7lURbIj001u1mX-88" value="ORDER" style="rounded=0;whiteSpace=wrap;html=1;gradientColor=none;fillColor=none;" vertex="1" parent="1">
          <mxGeometry x="540" y="560" width="90" height="40" as="geometry" />
        </mxCell>
        <mxCell id="c_Amdf7lURbIj001u1mX-89" value="PRODUCTS" style="rounded=0;whiteSpace=wrap;html=1;gradientColor=none;fillColor=none;" vertex="1" parent="1">
          <mxGeometry x="230" y="560" width="90" height="40" as="geometry" />
        </mxCell>
        <mxCell id="c_Amdf7lURbIj001u1mX-90" value="includes" style="shape=rhombus;perimeter=rhombusPerimeter;whiteSpace=wrap;html=1;align=center;fillColor=none;gradientColor=none;" vertex="1" parent="1">
          <mxGeometry x="370" y="547.5" width="120" height="65" as="geometry" />
        </mxCell>
        <mxCell id="c_Amdf7lURbIj001u1mX-91" value="ships to" style="shape=rhombus;perimeter=rhombusPerimeter;whiteSpace=wrap;html=1;align=center;fillColor=none;gradientColor=none;" vertex="1" parent="1">
          <mxGeometry x="845" y="547.5" width="120" height="65" as="geometry" />
        </mxCell>
        <mxCell id="c_Amdf7lURbIj001u1mX-92" value="sells" style="shape=rhombus;perimeter=rhombusPerimeter;whiteSpace=wrap;html=1;align=center;fillColor=none;gradientColor=none;" vertex="1" parent="1">
          <mxGeometry x="215" y="450" width="120" height="65" as="geometry" />
        </mxCell>
        <mxCell id="c_Amdf7lURbIj001u1mX-93" value="makes" style="shape=rhombus;perimeter=rhombusPerimeter;whiteSpace=wrap;html=1;align=center;fillColor=none;gradientColor=none;" vertex="1" parent="1">
          <mxGeometry x="525" y="450" width="120" height="65" as="geometry" />
        </mxCell>
        <mxCell id="c_Amdf7lURbIj001u1mX-94" value="" style="endArrow=none;html=1;rounded=0;entryX=0.5;entryY=1;entryDx=0;entryDy=0;exitX=0.5;exitY=0;exitDx=0;exitDy=0;" edge="1" parent="1" source="c_Amdf7lURbIj001u1mX-92" target="c_Amdf7lURbIj001u1mX-1">
          <mxGeometry width="50" height="50" relative="1" as="geometry">
            <mxPoint x="120" y="500" as="sourcePoint" />
            <mxPoint x="170" y="450" as="targetPoint" />
          </mxGeometry>
        </mxCell>
        <mxCell id="c_Amdf7lURbIj001u1mX-95" value="" style="endArrow=none;html=1;rounded=0;exitX=0.5;exitY=0;exitDx=0;exitDy=0;entryX=0.5;entryY=1;entryDx=0;entryDy=0;" edge="1" parent="1" source="c_Amdf7lURbIj001u1mX-89" target="c_Amdf7lURbIj001u1mX-92">
          <mxGeometry width="50" height="50" relative="1" as="geometry">
            <mxPoint x="285" y="460" as="sourcePoint" />
            <mxPoint x="280" y="520" as="targetPoint" />
          </mxGeometry>
        </mxCell>
        <mxCell id="c_Amdf7lURbIj001u1mX-96" value="" style="endArrow=none;html=1;rounded=0;entryX=0;entryY=0.5;entryDx=0;entryDy=0;exitX=1;exitY=0.5;exitDx=0;exitDy=0;" edge="1" parent="1" source="c_Amdf7lURbIj001u1mX-89" target="c_Amdf7lURbIj001u1mX-90">
          <mxGeometry width="50" height="50" relative="1" as="geometry">
            <mxPoint x="295" y="470" as="sourcePoint" />
            <mxPoint x="295" y="430" as="targetPoint" />
          </mxGeometry>
        </mxCell>
        <mxCell id="c_Amdf7lURbIj001u1mX-97" value="" style="endArrow=none;html=1;rounded=0;entryX=0;entryY=0.5;entryDx=0;entryDy=0;exitX=1;exitY=0.5;exitDx=0;exitDy=0;" edge="1" parent="1" source="c_Amdf7lURbIj001u1mX-90" target="c_Amdf7lURbIj001u1mX-88">
          <mxGeometry width="50" height="50" relative="1" as="geometry">
            <mxPoint x="305" y="480" as="sourcePoint" />
            <mxPoint x="305" y="440" as="targetPoint" />
          </mxGeometry>
        </mxCell>
        <mxCell id="c_Amdf7lURbIj001u1mX-98" value="" style="endArrow=none;html=1;rounded=0;entryX=0.5;entryY=1;entryDx=0;entryDy=0;exitX=0.5;exitY=0;exitDx=0;exitDy=0;" edge="1" parent="1" source="c_Amdf7lURbIj001u1mX-88" target="c_Amdf7lURbIj001u1mX-93">
          <mxGeometry width="50" height="50" relative="1" as="geometry">
            <mxPoint x="315" y="490" as="sourcePoint" />
            <mxPoint x="315" y="450" as="targetPoint" />
          </mxGeometry>
        </mxCell>
        <mxCell id="c_Amdf7lURbIj001u1mX-99" value="" style="endArrow=none;html=1;rounded=0;exitX=0.5;exitY=0;exitDx=0;exitDy=0;entryX=0.5;entryY=1;entryDx=0;entryDy=0;" edge="1" parent="1" source="c_Amdf7lURbIj001u1mX-93" target="c_Amdf7lURbIj001u1mX-5">
          <mxGeometry width="50" height="50" relative="1" as="geometry">
            <mxPoint x="595" y="570" as="sourcePoint" />
            <mxPoint x="620" y="430" as="targetPoint" />
          </mxGeometry>
        </mxCell>
        <mxCell id="c_Amdf7lURbIj001u1mX-100" value="" style="endArrow=none;html=1;rounded=0;entryX=0;entryY=0.5;entryDx=0;entryDy=0;exitX=1;exitY=0.5;exitDx=0;exitDy=0;" edge="1" parent="1" source="c_Amdf7lURbIj001u1mX-88" target="c_Amdf7lURbIj001u1mX-91">
          <mxGeometry width="50" height="50" relative="1" as="geometry">
            <mxPoint x="650" y="570" as="sourcePoint" />
            <mxPoint x="605" y="535" as="targetPoint" />
          </mxGeometry>
        </mxCell>
        <mxCell id="c_Amdf7lURbIj001u1mX-101" value="" style="endArrow=none;html=1;rounded=0;entryX=0.5;entryY=1;entryDx=0;entryDy=0;exitX=0.5;exitY=0;exitDx=0;exitDy=0;" edge="1" parent="1" source="c_Amdf7lURbIj001u1mX-91" target="c_Amdf7lURbIj001u1mX-22">
          <mxGeometry width="50" height="50" relative="1" as="geometry">
            <mxPoint x="640" y="590" as="sourcePoint" />
            <mxPoint x="855" y="590" as="targetPoint" />
          </mxGeometry>
        </mxCell>
        <mxCell id="c_Amdf7lURbIj001u1mX-104" value="" style="ellipse;whiteSpace=wrap;html=1;aspect=fixed;" vertex="1" parent="1">
          <mxGeometry x="190" y="605" width="10" height="10" as="geometry" />
        </mxCell>
        <mxCell id="c_Amdf7lURbIj001u1mX-105" value="" style="ellipse;whiteSpace=wrap;html=1;aspect=fixed;strokeColor=#000000;fillStyle=solid;fillColor=none;" vertex="1" parent="1">
          <mxGeometry x="190" y="585" width="10" height="10" as="geometry" />
        </mxCell>
        <mxCell id="c_Amdf7lURbIj001u1mX-106" value="" style="ellipse;whiteSpace=wrap;html=1;aspect=fixed;" vertex="1" parent="1">
          <mxGeometry x="190" y="565" width="10" height="10" as="geometry" />
        </mxCell>
        <mxCell id="c_Amdf7lURbIj001u1mX-107" value="" style="ellipse;whiteSpace=wrap;html=1;aspect=fixed;fillColor=#000000;" vertex="1" parent="1">
          <mxGeometry x="190" y="545" width="10" height="10" as="geometry" />
        </mxCell>
        <mxCell id="c_Amdf7lURbIj001u1mX-108" value="" style="endArrow=none;html=1;rounded=0;entryX=1;entryY=0.5;entryDx=0;entryDy=0;exitX=0;exitY=0;exitDx=0;exitDy=0;" edge="1" parent="1" target="c_Amdf7lURbIj001u1mX-107">
          <mxGeometry width="50" height="50" relative="1" as="geometry">
            <mxPoint x="230" y="565" as="sourcePoint" />
            <mxPoint x="260" y="545" as="targetPoint" />
            <Array as="points">
              <mxPoint x="220" y="550" />
            </Array>
          </mxGeometry>
        </mxCell>
        <mxCell id="c_Amdf7lURbIj001u1mX-109" value="" style="endArrow=none;html=1;rounded=0;entryX=1;entryY=0.5;entryDx=0;entryDy=0;exitX=0;exitY=0.25;exitDx=0;exitDy=0;" edge="1" parent="1" target="c_Amdf7lURbIj001u1mX-106">
          <mxGeometry width="50" height="50" relative="1" as="geometry">
            <mxPoint x="230" y="575" as="sourcePoint" />
            <mxPoint x="210" y="560" as="targetPoint" />
            <Array as="points">
              <mxPoint x="220" y="570" />
            </Array>
          </mxGeometry>
        </mxCell>
        <mxCell id="c_Amdf7lURbIj001u1mX-110" value="" style="endArrow=none;html=1;rounded=0;entryX=1;entryY=0.5;entryDx=0;entryDy=0;exitX=0;exitY=0.5;exitDx=0;exitDy=0;" edge="1" parent="1" target="c_Amdf7lURbIj001u1mX-105">
          <mxGeometry width="50" height="50" relative="1" as="geometry">
            <mxPoint x="230" y="585" as="sourcePoint" />
            <mxPoint x="220" y="570" as="targetPoint" />
            <Array as="points">
              <mxPoint x="220" y="590" />
            </Array>
          </mxGeometry>
        </mxCell>
        <mxCell id="c_Amdf7lURbIj001u1mX-111" value="" style="endArrow=none;html=1;rounded=0;entryX=1;entryY=0.5;entryDx=0;entryDy=0;exitX=0;exitY=0.75;exitDx=0;exitDy=0;" edge="1" parent="1" target="c_Amdf7lURbIj001u1mX-104">
          <mxGeometry width="50" height="50" relative="1" as="geometry">
            <mxPoint x="230" y="595" as="sourcePoint" />
            <mxPoint x="230" y="580" as="targetPoint" />
            <Array as="points">
              <mxPoint x="220" y="610" />
            </Array>
          </mxGeometry>
        </mxCell>
        <mxCell id="c_Amdf7lURbIj001u1mX-112" value="id" style="text;html=1;strokeColor=none;fillColor=none;align=center;verticalAlign=middle;whiteSpace=wrap;rounded=0;" vertex="1" parent="1">
          <mxGeometry x="175" y="545" width="10" height="10" as="geometry" />
        </mxCell>
        <mxCell id="c_Amdf7lURbIj001u1mX-113" value="name" style="text;html=1;strokeColor=none;fillColor=none;align=center;verticalAlign=middle;whiteSpace=wrap;rounded=0;" vertex="1" parent="1">
          <mxGeometry x="155" y="565" width="30" height="10" as="geometry" />
        </mxCell>
        <mxCell id="c_Amdf7lURbIj001u1mX-114" value="description" style="text;html=1;strokeColor=none;fillColor=none;align=center;verticalAlign=middle;whiteSpace=wrap;rounded=0;" vertex="1" parent="1">
          <mxGeometry x="140" y="585" width="35" height="10" as="geometry" />
        </mxCell>
        <mxCell id="c_Amdf7lURbIj001u1mX-115" value="stock" style="text;html=1;strokeColor=none;fillColor=none;align=center;verticalAlign=middle;whiteSpace=wrap;rounded=0;" vertex="1" parent="1">
          <mxGeometry x="157.5" y="605" width="27.5" height="10" as="geometry" />
        </mxCell>
        <mxCell id="c_Amdf7lURbIj001u1mX-128" value="" style="ellipse;whiteSpace=wrap;html=1;aspect=fixed;" vertex="1" parent="1">
          <mxGeometry x="190" y="622.5" width="10" height="10" as="geometry" />
        </mxCell>
        <mxCell id="c_Amdf7lURbIj001u1mX-129" value="" style="endArrow=none;html=1;rounded=0;entryX=1;entryY=0.5;entryDx=0;entryDy=0;exitX=0.074;exitY=0.992;exitDx=0;exitDy=0;exitPerimeter=0;" edge="1" parent="1" target="c_Amdf7lURbIj001u1mX-128" source="c_Amdf7lURbIj001u1mX-89">
          <mxGeometry width="50" height="50" relative="1" as="geometry">
            <mxPoint x="230" y="612.5" as="sourcePoint" />
            <mxPoint x="230" y="597.5" as="targetPoint" />
            <Array as="points">
              <mxPoint x="220" y="627.5" />
            </Array>
          </mxGeometry>
        </mxCell>
        <mxCell id="c_Amdf7lURbIj001u1mX-130" value="price" style="text;html=1;strokeColor=none;fillColor=none;align=center;verticalAlign=middle;whiteSpace=wrap;rounded=0;" vertex="1" parent="1">
          <mxGeometry x="160" y="622.5" width="25" height="10" as="geometry" />
        </mxCell>
        <mxCell id="c_Amdf7lURbIj001u1mX-131" value="" style="ellipse;whiteSpace=wrap;html=1;aspect=fixed;" vertex="1" parent="1">
          <mxGeometry x="190" y="642.5" width="10" height="10" as="geometry" />
        </mxCell>
        <mxCell id="c_Amdf7lURbIj001u1mX-132" value="" style="endArrow=none;html=1;rounded=0;entryX=1;entryY=0.5;entryDx=0;entryDy=0;exitX=0.158;exitY=1.004;exitDx=0;exitDy=0;exitPerimeter=0;" edge="1" parent="1" target="c_Amdf7lURbIj001u1mX-131" source="c_Amdf7lURbIj001u1mX-89">
          <mxGeometry width="50" height="50" relative="1" as="geometry">
            <mxPoint x="230" y="632.5" as="sourcePoint" />
            <mxPoint x="230" y="617.5" as="targetPoint" />
            <Array as="points">
              <mxPoint x="220" y="647.5" />
            </Array>
          </mxGeometry>
        </mxCell>
        <mxCell id="c_Amdf7lURbIj001u1mX-133" value="discount" style="text;html=1;strokeColor=none;fillColor=none;align=center;verticalAlign=middle;whiteSpace=wrap;rounded=0;" vertex="1" parent="1">
          <mxGeometry x="145" y="642.5" width="35" height="10" as="geometry" />
        </mxCell>
        <mxCell id="c_Amdf7lURbIj001u1mX-134" value="" style="ellipse;whiteSpace=wrap;html=1;aspect=fixed;" vertex="1" parent="1">
          <mxGeometry x="190" y="660" width="10" height="10" as="geometry" />
        </mxCell>
        <mxCell id="c_Amdf7lURbIj001u1mX-135" value="" style="endArrow=none;html=1;rounded=0;entryX=1;entryY=0.5;entryDx=0;entryDy=0;exitX=0.25;exitY=1;exitDx=0;exitDy=0;" edge="1" parent="1" target="c_Amdf7lURbIj001u1mX-134" source="c_Amdf7lURbIj001u1mX-89">
          <mxGeometry width="50" height="50" relative="1" as="geometry">
            <mxPoint x="237" y="637.5" as="sourcePoint" />
            <mxPoint x="230" y="635" as="targetPoint" />
            <Array as="points">
              <mxPoint x="220" y="665" />
            </Array>
          </mxGeometry>
        </mxCell>
        <mxCell id="c_Amdf7lURbIj001u1mX-136" value="size" style="text;html=1;strokeColor=none;fillColor=none;align=center;verticalAlign=middle;whiteSpace=wrap;rounded=0;" vertex="1" parent="1">
          <mxGeometry x="162.5" y="660" width="22.5" height="10" as="geometry" />
        </mxCell>
        <mxCell id="c_Amdf7lURbIj001u1mX-138" value="colour" style="text;html=1;strokeColor=none;fillColor=none;align=center;verticalAlign=middle;whiteSpace=wrap;rounded=0;" vertex="1" parent="1">
          <mxGeometry x="152.5" y="685" width="32.5" height="10" as="geometry" />
        </mxCell>
        <mxCell id="c_Amdf7lURbIj001u1mX-139" value="" style="ellipse;whiteSpace=wrap;html=1;aspect=fixed;" vertex="1" parent="1">
          <mxGeometry x="190" y="685" width="10" height="10" as="geometry" />
        </mxCell>
        <mxCell id="c_Amdf7lURbIj001u1mX-140" value="" style="endArrow=none;html=1;rounded=0;entryX=1;entryY=0.5;entryDx=0;entryDy=0;exitX=0.339;exitY=1.004;exitDx=0;exitDy=0;exitPerimeter=0;" edge="1" parent="1" source="c_Amdf7lURbIj001u1mX-89" target="c_Amdf7lURbIj001u1mX-139">
          <mxGeometry width="50" height="50" relative="1" as="geometry">
            <mxPoint x="258" y="605" as="sourcePoint" />
            <mxPoint x="205" y="670" as="targetPoint" />
            <Array as="points">
              <mxPoint x="220" y="690" />
            </Array>
          </mxGeometry>
        </mxCell>
        <mxCell id="c_Amdf7lURbIj001u1mX-142" value="" style="endArrow=none;html=1;rounded=0;entryX=1;entryY=0.5;entryDx=0;entryDy=0;exitX=0.427;exitY=0.994;exitDx=0;exitDy=0;exitPerimeter=0;" edge="1" parent="1" source="c_Amdf7lURbIj001u1mX-89" target="c_Amdf7lURbIj001u1mX-143">
          <mxGeometry width="50" height="50" relative="1" as="geometry">
            <mxPoint x="266" y="605" as="sourcePoint" />
            <mxPoint x="205" y="690" as="targetPoint" />
            <Array as="points">
              <mxPoint x="220" y="715" />
            </Array>
          </mxGeometry>
        </mxCell>
        <mxCell id="c_Amdf7lURbIj001u1mX-143" value="" style="ellipse;whiteSpace=wrap;html=1;aspect=fixed;" vertex="1" parent="1">
          <mxGeometry x="190" y="710" width="10" height="10" as="geometry" />
        </mxCell>
        <mxCell id="c_Amdf7lURbIj001u1mX-144" value="image" style="text;html=1;strokeColor=none;fillColor=none;align=center;verticalAlign=middle;whiteSpace=wrap;rounded=0;" vertex="1" parent="1">
          <mxGeometry x="155" y="710" width="30" height="10" as="geometry" />
        </mxCell>
        <mxCell id="c_Amdf7lURbIj001u1mX-145" value="size" style="text;html=1;strokeColor=none;fillColor=none;align=center;verticalAlign=middle;whiteSpace=wrap;rounded=0;" vertex="1" parent="1">
          <mxGeometry x="460" y="630" width="35" height="10" as="geometry" />
        </mxCell>
        <mxCell id="c_Amdf7lURbIj001u1mX-146" value="" style="ellipse;whiteSpace=wrap;html=1;aspect=fixed;fillColor=none;" vertex="1" parent="1">
          <mxGeometry x="450" y="630" width="10" height="10" as="geometry" />
        </mxCell>
        <mxCell id="c_Amdf7lURbIj001u1mX-147" value="" style="endArrow=none;html=1;rounded=0;entryX=0.5;entryY=0;entryDx=0;entryDy=0;exitX=0.708;exitY=0.795;exitDx=0;exitDy=0;exitPerimeter=0;" edge="1" parent="1" target="c_Amdf7lURbIj001u1mX-146" source="c_Amdf7lURbIj001u1mX-90">
          <mxGeometry width="50" height="50" relative="1" as="geometry">
            <mxPoint x="455" y="605" as="sourcePoint" />
            <mxPoint x="540" y="652" as="targetPoint" />
            <Array as="points" />
          </mxGeometry>
        </mxCell>
        <mxCell id="c_Amdf7lURbIj001u1mX-148" value="" style="ellipse;whiteSpace=wrap;html=1;aspect=fixed;" vertex="1" parent="1">
          <mxGeometry x="465" y="600" width="10" height="10" as="geometry" />
        </mxCell>
        <mxCell id="c_Amdf7lURbIj001u1mX-149" value="quantity" style="text;html=1;strokeColor=none;fillColor=none;align=center;verticalAlign=middle;whiteSpace=wrap;rounded=0;" vertex="1" parent="1">
          <mxGeometry x="480" y="600" width="40" height="10" as="geometry" />
        </mxCell>
        <mxCell id="c_Amdf7lURbIj001u1mX-150" value="color" style="text;html=1;strokeColor=none;fillColor=none;align=center;verticalAlign=middle;whiteSpace=wrap;rounded=0;" vertex="1" parent="1">
          <mxGeometry x="455" y="660" width="25" height="10" as="geometry" />
        </mxCell>
        <mxCell id="c_Amdf7lURbIj001u1mX-151" value="" style="ellipse;whiteSpace=wrap;html=1;aspect=fixed;fillColor=none;" vertex="1" parent="1">
          <mxGeometry x="425" y="680" width="10" height="10" as="geometry" />
        </mxCell>
        <mxCell id="c_Amdf7lURbIj001u1mX-152" value="" style="endArrow=none;html=1;rounded=0;entryX=0.5;entryY=0;entryDx=0;entryDy=0;exitX=0.709;exitY=0.788;exitDx=0;exitDy=0;exitPerimeter=0;" edge="1" parent="1" target="c_Amdf7lURbIj001u1mX-151">
          <mxGeometry width="50" height="50" relative="1" as="geometry">
            <mxPoint x="430" y="613" as="sourcePoint" />
            <mxPoint x="515" y="667" as="targetPoint" />
            <Array as="points" />
          </mxGeometry>
        </mxCell>
        <mxCell id="c_Amdf7lURbIj001u1mX-153" value="" style="ellipse;whiteSpace=wrap;html=1;aspect=fixed;" vertex="1" parent="1">
          <mxGeometry x="440" y="660" width="10" height="10" as="geometry" />
        </mxCell>
        <mxCell id="c_Amdf7lURbIj001u1mX-154" value="" style="endArrow=none;html=1;rounded=0;entryX=0.5;entryY=0;entryDx=0;entryDy=0;exitX=0.62;exitY=0.881;exitDx=0;exitDy=0;exitPerimeter=0;" edge="1" parent="1" target="c_Amdf7lURbIj001u1mX-153" source="c_Amdf7lURbIj001u1mX-90">
          <mxGeometry width="50" height="50" relative="1" as="geometry">
            <mxPoint x="445" y="605" as="sourcePoint" />
            <mxPoint x="545" y="672.5" as="targetPoint" />
            <Array as="points" />
          </mxGeometry>
        </mxCell>
        <mxCell id="c_Amdf7lURbIj001u1mX-155" value="price" style="text;html=1;strokeColor=none;fillColor=none;align=center;verticalAlign=middle;whiteSpace=wrap;rounded=0;" vertex="1" parent="1">
          <mxGeometry x="435" y="680" width="40" height="10" as="geometry" />
        </mxCell>
        <mxCell id="c_Amdf7lURbIj001u1mX-156" value="" style="ellipse;whiteSpace=wrap;html=1;aspect=fixed;fillColor=none;" vertex="1" parent="1">
          <mxGeometry x="410" y="695" width="10" height="10" as="geometry" />
        </mxCell>
        <mxCell id="c_Amdf7lURbIj001u1mX-157" value="" style="endArrow=none;html=1;rounded=0;entryX=0.5;entryY=0;entryDx=0;entryDy=0;exitX=0.375;exitY=0.863;exitDx=0;exitDy=0;exitPerimeter=0;" edge="1" parent="1" target="c_Amdf7lURbIj001u1mX-156" source="c_Amdf7lURbIj001u1mX-90">
          <mxGeometry width="50" height="50" relative="1" as="geometry">
            <mxPoint x="415" y="620" as="sourcePoint" />
            <mxPoint x="500" y="674" as="targetPoint" />
            <Array as="points" />
          </mxGeometry>
        </mxCell>
        <mxCell id="c_Amdf7lURbIj001u1mX-158" value="discount" style="text;html=1;strokeColor=none;fillColor=none;align=center;verticalAlign=middle;whiteSpace=wrap;rounded=0;" vertex="1" parent="1">
          <mxGeometry x="425" y="695" width="40" height="10" as="geometry" />
        </mxCell>
        <mxCell id="c_Amdf7lURbIj001u1mX-159" value="" style="endArrow=none;html=1;rounded=0;entryX=0.831;entryY=0.671;entryDx=0;entryDy=0;exitX=0.5;exitY=0;exitDx=0;exitDy=0;entryPerimeter=0;" edge="1" parent="1" source="c_Amdf7lURbIj001u1mX-148" target="c_Amdf7lURbIj001u1mX-90">
          <mxGeometry width="50" height="50" relative="1" as="geometry">
            <mxPoint x="449" y="610" as="sourcePoint" />
            <mxPoint x="450" y="635" as="targetPoint" />
            <Array as="points" />
          </mxGeometry>
        </mxCell>
        <mxCell id="c_Amdf7lURbIj001u1mX-161" value="" style="ellipse;whiteSpace=wrap;html=1;aspect=fixed;fillColor=none;" vertex="1" parent="1">
          <mxGeometry x="545" y="655" width="10" height="10" as="geometry" />
        </mxCell>
        <mxCell id="c_Amdf7lURbIj001u1mX-162" value="" style="endArrow=none;html=1;rounded=0;exitX=0.109;exitY=1.001;exitDx=0;exitDy=0;exitPerimeter=0;entryX=0.5;entryY=0;entryDx=0;entryDy=0;" edge="1" parent="1" target="c_Amdf7lURbIj001u1mX-161" source="c_Amdf7lURbIj001u1mX-88">
          <mxGeometry width="50" height="50" relative="1" as="geometry">
            <mxPoint x="594.84" y="725" as="sourcePoint" />
            <mxPoint x="570" y="620" as="targetPoint" />
            <Array as="points" />
          </mxGeometry>
        </mxCell>
        <mxCell id="c_Amdf7lURbIj001u1mX-163" value="status" style="text;html=1;strokeColor=none;fillColor=none;align=center;verticalAlign=middle;whiteSpace=wrap;rounded=0;" vertex="1" parent="1">
          <mxGeometry x="560" y="655" width="30" height="10" as="geometry" />
        </mxCell>
        <mxCell id="c_Amdf7lURbIj001u1mX-168" value="total_price" style="text;html=1;strokeColor=none;fillColor=none;align=center;verticalAlign=middle;whiteSpace=wrap;rounded=0;" vertex="1" parent="1">
          <mxGeometry x="615" y="625" width="45" height="10" as="geometry" />
        </mxCell>
        <mxCell id="c_Amdf7lURbIj001u1mX-169" value="id" style="text;html=1;strokeColor=none;fillColor=none;align=center;verticalAlign=middle;whiteSpace=wrap;rounded=0;" vertex="1" parent="1">
          <mxGeometry x="630" y="610" width="10" height="10" as="geometry" />
        </mxCell>
        <mxCell id="c_Amdf7lURbIj001u1mX-172" value="invoice_number" style="text;html=1;strokeColor=none;fillColor=none;align=center;verticalAlign=middle;whiteSpace=wrap;rounded=0;" vertex="1" parent="1">
          <mxGeometry x="585" y="640" width="85" height="10" as="geometry" />
        </mxCell>
        <mxCell id="c_Amdf7lURbIj001u1mX-174" value="" style="ellipse;whiteSpace=wrap;html=1;aspect=fixed;fillColor=none;" vertex="1" parent="1">
          <mxGeometry x="570" y="640" width="10" height="10" as="geometry" />
        </mxCell>
        <mxCell id="c_Amdf7lURbIj001u1mX-175" value="" style="endArrow=none;html=1;rounded=0;exitX=0.388;exitY=1.001;exitDx=0;exitDy=0;exitPerimeter=0;entryX=0.5;entryY=0;entryDx=0;entryDy=0;" edge="1" parent="1" target="c_Amdf7lURbIj001u1mX-174" source="c_Amdf7lURbIj001u1mX-88">
          <mxGeometry width="50" height="50" relative="1" as="geometry">
            <mxPoint x="555" y="605" as="sourcePoint" />
            <mxPoint x="575" y="625" as="targetPoint" />
            <Array as="points" />
          </mxGeometry>
        </mxCell>
        <mxCell id="c_Amdf7lURbIj001u1mX-176" value="" style="ellipse;whiteSpace=wrap;html=1;aspect=fixed;fillColor=none;" vertex="1" parent="1">
          <mxGeometry x="595" y="625" width="10" height="10" as="geometry" />
        </mxCell>
        <mxCell id="c_Amdf7lURbIj001u1mX-177" value="" style="endArrow=none;html=1;rounded=0;exitX=0.664;exitY=0.995;exitDx=0;exitDy=0;exitPerimeter=0;entryX=0.5;entryY=0;entryDx=0;entryDy=0;" edge="1" parent="1" target="c_Amdf7lURbIj001u1mX-176" source="c_Amdf7lURbIj001u1mX-88">
          <mxGeometry width="50" height="50" relative="1" as="geometry">
            <mxPoint x="560" y="610" as="sourcePoint" />
            <mxPoint x="580" y="630" as="targetPoint" />
            <Array as="points" />
          </mxGeometry>
        </mxCell>
        <mxCell id="c_Amdf7lURbIj001u1mX-178" value="" style="ellipse;whiteSpace=wrap;html=1;aspect=fixed;fillColor=#000000;" vertex="1" parent="1">
          <mxGeometry x="615" y="610" width="10" height="10" as="geometry" />
        </mxCell>
        <mxCell id="c_Amdf7lURbIj001u1mX-179" value="" style="endArrow=none;html=1;rounded=0;exitX=0.887;exitY=0.995;exitDx=0;exitDy=0;exitPerimeter=0;entryX=0.5;entryY=0;entryDx=0;entryDy=0;" edge="1" parent="1" target="c_Amdf7lURbIj001u1mX-178" source="c_Amdf7lURbIj001u1mX-88">
          <mxGeometry width="50" height="50" relative="1" as="geometry">
            <mxPoint x="565" y="615" as="sourcePoint" />
            <mxPoint x="585" y="635" as="targetPoint" />
            <Array as="points" />
          </mxGeometry>
        </mxCell>
        <mxCell id="c_Amdf7lURbIj001u1mX-180" value="" style="ellipse;whiteSpace=wrap;html=1;aspect=fixed;" vertex="1" parent="1">
          <mxGeometry x="980" y="425" width="10" height="10" as="geometry" />
        </mxCell>
        <mxCell id="c_Amdf7lURbIj001u1mX-181" value="" style="ellipse;whiteSpace=wrap;html=1;aspect=fixed;" vertex="1" parent="1">
          <mxGeometry x="980" y="395" width="10" height="10" as="geometry" />
        </mxCell>
        <mxCell id="c_Amdf7lURbIj001u1mX-182" value="" style="ellipse;whiteSpace=wrap;html=1;aspect=fixed;" vertex="1" parent="1">
          <mxGeometry x="980" y="375" width="10" height="10" as="geometry" />
        </mxCell>
        <mxCell id="c_Amdf7lURbIj001u1mX-183" value="" style="ellipse;whiteSpace=wrap;html=1;aspect=fixed;fillColor=#000000;" vertex="1" parent="1">
          <mxGeometry x="980" y="340" width="10" height="10" as="geometry" />
        </mxCell>
        <mxCell id="c_Amdf7lURbIj001u1mX-184" value="" style="endArrow=none;html=1;rounded=0;exitX=1;exitY=0.25;exitDx=0;exitDy=0;entryX=0;entryY=0.5;entryDx=0;entryDy=0;" edge="1" parent="1" target="c_Amdf7lURbIj001u1mX-183">
          <mxGeometry width="50" height="50" relative="1" as="geometry">
            <mxPoint x="950" y="376" as="sourcePoint" />
            <mxPoint x="990" y="350" as="targetPoint" />
            <Array as="points">
              <mxPoint x="960" y="345" />
            </Array>
          </mxGeometry>
        </mxCell>
        <mxCell id="c_Amdf7lURbIj001u1mX-185" value="" style="endArrow=none;html=1;rounded=0;exitX=1;exitY=0.5;exitDx=0;exitDy=0;entryX=0;entryY=0.5;entryDx=0;entryDy=0;" edge="1" parent="1" target="c_Amdf7lURbIj001u1mX-182">
          <mxGeometry width="50" height="50" relative="1" as="geometry">
            <mxPoint x="950" y="386" as="sourcePoint" />
            <mxPoint x="1000" y="360" as="targetPoint" />
            <Array as="points">
              <mxPoint x="960" y="380" />
            </Array>
          </mxGeometry>
        </mxCell>
        <mxCell id="c_Amdf7lURbIj001u1mX-186" value="" style="endArrow=none;html=1;rounded=0;exitX=1;exitY=0.75;exitDx=0;exitDy=0;entryX=0;entryY=0.5;entryDx=0;entryDy=0;" edge="1" parent="1" target="c_Amdf7lURbIj001u1mX-181">
          <mxGeometry width="50" height="50" relative="1" as="geometry">
            <mxPoint x="950" y="396" as="sourcePoint" />
            <mxPoint x="1010" y="370" as="targetPoint" />
            <Array as="points">
              <mxPoint x="960" y="400" />
            </Array>
          </mxGeometry>
        </mxCell>
        <mxCell id="c_Amdf7lURbIj001u1mX-187" value="" style="endArrow=none;html=1;rounded=0;exitX=1;exitY=1;exitDx=0;exitDy=0;entryX=0;entryY=0.5;entryDx=0;entryDy=0;" edge="1" parent="1" target="c_Amdf7lURbIj001u1mX-180">
          <mxGeometry width="50" height="50" relative="1" as="geometry">
            <mxPoint x="950" y="406" as="sourcePoint" />
            <mxPoint x="1020" y="380" as="targetPoint" />
            <Array as="points">
              <mxPoint x="960" y="430" />
            </Array>
          </mxGeometry>
        </mxCell>
        <mxCell id="c_Amdf7lURbIj001u1mX-188" value="id" style="text;html=1;strokeColor=none;fillColor=none;align=center;verticalAlign=middle;whiteSpace=wrap;rounded=0;" vertex="1" parent="1">
          <mxGeometry x="995" y="340" width="10" height="10" as="geometry" />
        </mxCell>
        <mxCell id="c_Amdf7lURbIj001u1mX-189" value="province" style="text;html=1;strokeColor=none;fillColor=none;align=center;verticalAlign=middle;whiteSpace=wrap;rounded=0;" vertex="1" parent="1">
          <mxGeometry x="995" y="375" width="43" height="10" as="geometry" />
        </mxCell>
        <mxCell id="c_Amdf7lURbIj001u1mX-190" value="city" style="text;html=1;strokeColor=none;fillColor=none;align=center;verticalAlign=middle;whiteSpace=wrap;rounded=0;" vertex="1" parent="1">
          <mxGeometry x="995" y="395.25" width="20" height="10" as="geometry" />
        </mxCell>
        <mxCell id="c_Amdf7lURbIj001u1mX-191" value="number" style="text;html=1;strokeColor=none;fillColor=none;align=center;verticalAlign=middle;whiteSpace=wrap;rounded=0;" vertex="1" parent="1">
          <mxGeometry x="995" y="425" width="40" height="10" as="geometry" />
        </mxCell>
        <mxCell id="c_Amdf7lURbIj001u1mX-208" value="" style="ellipse;whiteSpace=wrap;html=1;aspect=fixed;" vertex="1" parent="1">
          <mxGeometry x="980" y="358" width="10" height="10" as="geometry" />
        </mxCell>
        <mxCell id="c_Amdf7lURbIj001u1mX-209" value="" style="endArrow=none;html=1;rounded=0;exitX=1;exitY=0.25;exitDx=0;exitDy=0;entryX=0;entryY=0.5;entryDx=0;entryDy=0;" edge="1" parent="1" target="c_Amdf7lURbIj001u1mX-208" source="c_Amdf7lURbIj001u1mX-22">
          <mxGeometry width="50" height="50" relative="1" as="geometry">
            <mxPoint x="950" y="369" as="sourcePoint" />
            <mxPoint x="1000" y="343" as="targetPoint" />
            <Array as="points">
              <mxPoint x="960" y="363" />
            </Array>
          </mxGeometry>
        </mxCell>
        <mxCell id="c_Amdf7lURbIj001u1mX-210" value="country" style="text;html=1;strokeColor=none;fillColor=none;align=center;verticalAlign=middle;whiteSpace=wrap;rounded=0;" vertex="1" parent="1">
          <mxGeometry x="995" y="358" width="38" height="10" as="geometry" />
        </mxCell>
        <mxCell id="c_Amdf7lURbIj001u1mX-211" value="" style="ellipse;whiteSpace=wrap;html=1;aspect=fixed;" vertex="1" parent="1">
          <mxGeometry x="980" y="410" width="10" height="10" as="geometry" />
        </mxCell>
        <mxCell id="c_Amdf7lURbIj001u1mX-212" value="" style="endArrow=none;html=1;rounded=0;exitX=1;exitY=0.75;exitDx=0;exitDy=0;entryX=0;entryY=0.5;entryDx=0;entryDy=0;" edge="1" parent="1" target="c_Amdf7lURbIj001u1mX-211" source="c_Amdf7lURbIj001u1mX-22">
          <mxGeometry width="50" height="50" relative="1" as="geometry">
            <mxPoint x="950" y="421" as="sourcePoint" />
            <mxPoint x="1000" y="395" as="targetPoint" />
            <Array as="points">
              <mxPoint x="960" y="415" />
            </Array>
          </mxGeometry>
        </mxCell>
        <mxCell id="c_Amdf7lURbIj001u1mX-213" value="street" style="text;html=1;strokeColor=none;fillColor=none;align=center;verticalAlign=middle;whiteSpace=wrap;rounded=0;" vertex="1" parent="1">
          <mxGeometry x="995" y="410" width="28" height="10" as="geometry" />
        </mxCell>
        <mxCell id="c_Amdf7lURbIj001u1mX-214" value="" style="ellipse;whiteSpace=wrap;html=1;aspect=fixed;" vertex="1" parent="1">
          <mxGeometry x="980" y="445" width="10" height="10" as="geometry" />
        </mxCell>
        <mxCell id="c_Amdf7lURbIj001u1mX-215" value="" style="endArrow=none;html=1;rounded=0;exitX=0.928;exitY=1;exitDx=0;exitDy=0;entryX=0;entryY=0.5;entryDx=0;entryDy=0;exitPerimeter=0;" edge="1" parent="1" target="c_Amdf7lURbIj001u1mX-214" source="c_Amdf7lURbIj001u1mX-22">
          <mxGeometry width="50" height="50" relative="1" as="geometry">
            <mxPoint x="950" y="456" as="sourcePoint" />
            <mxPoint x="1000" y="430" as="targetPoint" />
            <Array as="points">
              <mxPoint x="960" y="450" />
            </Array>
          </mxGeometry>
        </mxCell>
        <mxCell id="c_Amdf7lURbIj001u1mX-216" value="unit" style="text;html=1;strokeColor=none;fillColor=none;align=center;verticalAlign=middle;whiteSpace=wrap;rounded=0;" vertex="1" parent="1">
          <mxGeometry x="995" y="445" width="18" height="10" as="geometry" />
        </mxCell>
        <mxCell id="c_Amdf7lURbIj001u1mX-219" value="(0,n)" style="text;html=1;align=center;verticalAlign=middle;resizable=0;points=[];autosize=1;strokeColor=none;fillColor=none;" vertex="1" parent="1">
          <mxGeometry x="270" y="410" width="45" height="30" as="geometry" />
        </mxCell>
        <mxCell id="c_Amdf7lURbIj001u1mX-220" value="(1,1)" style="text;html=1;align=center;verticalAlign=middle;resizable=0;points=[];autosize=1;strokeColor=none;fillColor=none;" vertex="1" parent="1">
          <mxGeometry x="270" y="530" width="45" height="30" as="geometry" />
        </mxCell>
        <mxCell id="c_Amdf7lURbIj001u1mX-221" value="(1,n)" style="text;html=1;align=center;verticalAlign=middle;resizable=0;points=[];autosize=1;strokeColor=none;fillColor=none;" vertex="1" parent="1">
          <mxGeometry x="500" y="547.5" width="45" height="30" as="geometry" />
        </mxCell>
        <mxCell id="c_Amdf7lURbIj001u1mX-222" value="(0,n)" style="text;html=1;align=center;verticalAlign=middle;resizable=0;points=[];autosize=1;strokeColor=none;fillColor=none;" vertex="1" parent="1">
          <mxGeometry x="315" y="547.5" width="45" height="30" as="geometry" />
        </mxCell>
        <mxCell id="c_Amdf7lURbIj001u1mX-223" value="(0,1)" style="text;html=1;align=center;verticalAlign=middle;resizable=0;points=[];autosize=1;strokeColor=none;fillColor=none;" vertex="1" parent="1">
          <mxGeometry x="447.5" y="605" width="45" height="30" as="geometry" />
        </mxCell>
        <mxCell id="c_Amdf7lURbIj001u1mX-224" value="(0,1)" style="text;html=1;align=center;verticalAlign=middle;resizable=0;points=[];autosize=1;strokeColor=none;fillColor=none;" vertex="1" parent="1">
          <mxGeometry x="435" y="632.5" width="45" height="30" as="geometry" />
        </mxCell>
        <mxCell id="c_Amdf7lURbIj001u1mX-225" value="(1,1)" style="text;html=1;align=center;verticalAlign=middle;resizable=0;points=[];autosize=1;strokeColor=none;fillColor=none;" vertex="1" parent="1">
          <mxGeometry x="582.5" y="525" width="45" height="30" as="geometry" />
        </mxCell>
        <mxCell id="c_Amdf7lURbIj001u1mX-226" value="(0,n)" style="text;html=1;align=center;verticalAlign=middle;resizable=0;points=[];autosize=1;strokeColor=none;fillColor=none;" vertex="1" parent="1">
          <mxGeometry x="580" y="410" width="50" height="30" as="geometry" />
        </mxCell>
        <mxCell id="c_Amdf7lURbIj001u1mX-227" value="(1,1)" style="text;html=1;align=center;verticalAlign=middle;resizable=0;points=[];autosize=1;strokeColor=none;fillColor=none;" vertex="1" parent="1">
          <mxGeometry x="625" y="555" width="45" height="30" as="geometry" />
        </mxCell>
        <mxCell id="c_Amdf7lURbIj001u1mX-228" value="(0,n)" style="text;html=1;align=center;verticalAlign=middle;resizable=0;points=[];autosize=1;strokeColor=none;fillColor=none;" vertex="1" parent="1">
          <mxGeometry x="860" y="410" width="50" height="30" as="geometry" />
        </mxCell>
        <mxCell id="c_Amdf7lURbIj001u1mX-229" value="(0,n)" style="text;html=1;align=center;verticalAlign=middle;resizable=0;points=[];autosize=1;strokeColor=none;fillColor=none;" vertex="1" parent="1">
          <mxGeometry x="185" y="660" width="45" height="30" as="geometry" />
        </mxCell>
        <mxCell id="c_Amdf7lURbIj001u1mX-230" value="(0,n)" style="text;html=1;align=center;verticalAlign=middle;resizable=0;points=[];autosize=1;strokeColor=none;fillColor=none;" vertex="1" parent="1">
          <mxGeometry x="185" y="685" width="45" height="30" as="geometry" />
        </mxCell>
        <mxCell id="c_Amdf7lURbIj001u1mX-231" value="(1,n)" style="text;html=1;align=center;verticalAlign=middle;resizable=0;points=[];autosize=1;strokeColor=none;fillColor=none;" vertex="1" parent="1">
          <mxGeometry x="185" y="715" width="45" height="30" as="geometry" />
        </mxCell>
      </root>
    </mxGraphModel>
  </diagram>
</mxfile>
